<?xml version="1.0" encoding="UTF-8" standalone="no"?>
<!DOCTYPE svg PUBLIC "-//W3C//DTD SVG 1.1//EN" "http://www.w3.org/Graphics/SVG/1.1/DTD/svg11.dtd">
<svg width="100%" height="100%" viewBox="0 0 20 20" version="1.1" xmlns="http://www.w3.org/2000/svg" xmlns:xlink="http://www.w3.org/1999/xlink" xml:space="preserve" style="fill-rule:evenodd;clip-rule:evenodd;stroke-linejoin:round;stroke-miterlimit:1.41421;">
    <path d="M15.5,11L4.5,11C4.225,11 4,11.225 4,11.5L4,12.5C4,12.776 4.225,13 4.5,13L15.5,13C15.776,13 16,12.776 16,12.5L16,11.5C16,11.225 15.776,11 15.5,11ZM15.5,7L4.5,7C4.225,7 4,7.225 4,7.5L4,8.5C4,8.776 4.225,9 4.5,9L15.5,9C15.776,9 16,8.776 16,8.5L16,7.5C16,7.225 15.776,7 15.5,7ZM10.5,15L4.5,15C4.225,15 4,15.225 4,15.5L4,16.5C4,16.776 4.225,17 4.5,17L10.5,17C10.776,17 11,16.776 11,16.5L11,15.5C11,15.225 10.776,15 10.5,15ZM15.5,3L4.5,3C4.225,3 4,3.225 4,3.5L4,4.5C4,4.776 4.225,5 4.5,5L15.5,5C15.776,5 16,4.776 16,4.5L16,3.5C16,3.225 15.776,3 15.5,3Z" style="fill:white;"/>
</svg>
