<?xml version="1.0" encoding="UTF-8" standalone="no"?>
<!DOCTYPE svg PUBLIC "-//W3C//DTD SVG 1.1//EN" "http://www.w3.org/Graphics/SVG/1.1/DTD/svg11.dtd">
<svg width="100%" height="100%" viewBox="0 0 24 24" version="1.1" xmlns="http://www.w3.org/2000/svg" xmlns:xlink="http://www.w3.org/1999/xlink" xml:space="preserve" style="fill-rule:evenodd;clip-rule:evenodd;stroke-linejoin:round;stroke-miterlimit:1.41421;">
    <g transform="matrix(1.33333,0,0,1.33333,-1.66667,-1.33333)">
        <path d="M14,5L10,5L10,7L14,7L14,5ZM14,8L10,8L10,9L14,9L14,8ZM9,5L6,5L6,9L9,9L9,5ZM9,11L14,11L14,10L9,10L9,11ZM12,13L14,13L14,12L12,12L12,13ZM14,14L6,14L6,15L14,15L14,14ZM11,12L6,12L6,13L11,13L11,12ZM8,10L6,10L6,11L8,11L8,10ZM17,1L3,1C2.447,1 2,1.447 2,2L2,18C2,18.552 2.447,19 3,19L17,19C17.553,19 18,18.552 18,18L18,2C18,1.448 17.553,1 17,1ZM16,17L4,17L4,3L16,3L16,17Z" style="fill:white;"/>
    </g>
</svg>
