<?xml version="1.0" encoding="UTF-8" standalone="no"?>
<!DOCTYPE svg PUBLIC "-//W3C//DTD SVG 1.1//EN" "http://www.w3.org/Graphics/SVG/1.1/DTD/svg11.dtd">
<svg width="100%" height="100%" viewBox="0 0 48 48" version="1.1" xmlns="http://www.w3.org/2000/svg" xmlns:xlink="http://www.w3.org/1999/xlink" xml:space="preserve" style="fill-rule:evenodd;clip-rule:evenodd;stroke-linejoin:round;stroke-miterlimit:1.41421;">
    <g id="cross">
        <g>
            <g id="Rectangle" transform="matrix(1,1.11022e-16,-8.06534e-17,0.399465,-20,0.402141)">
                <rect x="22" y="4" width="4" height="40"/>
            </g>
            <g id="Rectangle1" transform="matrix(-1.11022e-16,-1,0.39989,-4.04359e-17,0.400439,28)">
                <rect x="22" y="4" width="4" height="40"/>
            </g>
            <g id="Rectangle11" transform="matrix(0.707107,-0.707107,0.353345,0.353345,-13.2617,20.8906)">
                <rect x="22" y="4" width="4" height="40"/>
            </g>
        </g>
        <g transform="matrix(6.12323e-17,1,-1,6.12323e-17,48,3.55271e-15)">
            <g id="Rectangle2" transform="matrix(1,1.11022e-16,-8.06534e-17,0.399465,-20,0.402141)">
                <rect x="22" y="4" width="4" height="40"/>
            </g>
            <g id="Rectangle12" transform="matrix(-1.11022e-16,-1,0.39989,-4.04359e-17,0.400439,28)">
                <rect x="22" y="4" width="4" height="40"/>
            </g>
            <g id="Rectangle13" transform="matrix(0.707107,-0.707107,0.353345,0.353345,-13.2617,20.8906)">
                <rect x="22" y="4" width="4" height="40"/>
            </g>
        </g>
        <g transform="matrix(-1,-1.22465e-16,1.22465e-16,-1,48,47.9656)">
            <g id="Rectangle3" transform="matrix(1,1.11022e-16,-8.06534e-17,0.399465,-20,0.402141)">
                <rect x="22" y="4" width="4" height="40"/>
            </g>
            <g id="Rectangle14" transform="matrix(-1.11022e-16,-1,0.39989,-4.04359e-17,0.400439,28)">
                <rect x="22" y="4" width="4" height="40"/>
            </g>
            <g id="Rectangle15" transform="matrix(0.707107,-0.707107,0.353345,0.353345,-13.2617,20.8906)">
                <rect x="22" y="4" width="4" height="40"/>
            </g>
        </g>
        <g transform="matrix(6.12323e-17,-1,1,6.12323e-17,-7.10543e-15,47.9656)">
            <g id="Rectangle4" transform="matrix(1,1.11022e-16,-8.06534e-17,0.399465,-20,0.402141)">
                <rect x="22" y="4" width="4" height="40"/>
            </g>
            <g id="Rectangle16" transform="matrix(-1.11022e-16,-1,0.39989,-4.04359e-17,0.400439,28)">
                <rect x="22" y="4" width="4" height="40"/>
            </g>
            <g id="Rectangle17" transform="matrix(0.707107,-0.707107,0.353345,0.353345,-13.2617,20.8906)">
                <rect x="22" y="4" width="4" height="40"/>
            </g>
        </g>
    </g>
</svg>
