<?xml version="1.0" encoding="UTF-8" standalone="no"?>
<!DOCTYPE svg PUBLIC "-//W3C//DTD SVG 1.1//EN" "http://www.w3.org/Graphics/SVG/1.1/DTD/svg11.dtd">
<svg width="100%" height="100%" viewBox="0 0 24 24" version="1.1" xmlns="http://www.w3.org/2000/svg" xmlns:xlink="http://www.w3.org/1999/xlink" xml:space="preserve" style="fill-rule:evenodd;clip-rule:evenodd;stroke-linejoin:round;stroke-miterlimit:1.41421;">
    <g transform="matrix(1.24993,0,0,1.24993,-0.499974,-0.499974)">
        <path d="M5.454,14.548C5.454,14.548 10.022,13.921 11.972,11.972C13.922,10.023 14.548,5.454 14.548,5.454C14.548,5.454 9.979,6.081 8.03,8.03C6.081,9.979 5.454,14.548 5.454,14.548ZM9.017,9.015C9.835,8.197 11.402,7.615 12.746,7.253C12.385,8.595 11.801,10.173 10.986,10.985C10.443,11.53 9.56,11.53 9.017,10.985C8.472,10.442 8.472,9.56 9.017,9.015ZM10.001,0.4C4.698,0.4 0.4,4.698 0.4,10C0.4,15.303 4.698,19.601 10.001,19.601C15.302,19.601 19.601,15.303 19.601,10C19.601,4.698 15.302,0.4 10.001,0.4ZM10,17.6C5.803,17.6 2.4,14.198 2.4,10C2.4,5.803 5.802,2.4 10,2.4C14.197,2.4 17.601,5.802 17.601,10C17.601,14.197 14.197,17.6 10,17.6Z" style="fill:white;fill-rule:nonzero;"/>
    </g>
</svg>
