<?xml version="1.0" encoding="UTF-8" standalone="no"?>
<!DOCTYPE svg PUBLIC "-//W3C//DTD SVG 1.1//EN" "http://www.w3.org/Graphics/SVG/1.1/DTD/svg11.dtd">
<svg width="100%" height="100%" viewBox="0 0 24 24" version="1.1" xmlns="http://www.w3.org/2000/svg" xmlns:xlink="http://www.w3.org/1999/xlink" xml:space="preserve" style="fill-rule:evenodd;clip-rule:evenodd;stroke-linejoin:round;stroke-miterlimit:1.41421;">
    <g transform="matrix(1.26315,0,0,1.26315,-0.789359,-0.631129)">
        <path d="M17,5.95L17,16.301C17,16.823 16.548,17.072 16,17.461C15.56,17.774 15,17.386 15,16.874C15,16.874 15,6.969 15,6.76C15,6.549 14.926,6.348 14.686,6.225C14.446,6.102 6.948,2.16 6.948,2.16C6.827,2.115 6.299,1.782 5.595,2.144C4.926,2.488 4.562,2.862 4.469,3.038L12.649,7.52C12.866,7.634 13,7.81 13,8.036L13,18.838C13,19.068 12.858,19.314 12.631,19.423C12.527,19.475 12.412,19.5 12.298,19.5C12.163,19.5 12.027,19.467 11.912,19.396C11.697,19.265 4.138,14.63 3.639,14.329C3.399,14.185 3.118,13.89 3.112,13.671L3,3.385C3,3.187 2.977,2.838 3.289,2.353C3.986,1.269 6.418,0.036 7.649,0.675L16.648,5.23C16.865,5.342 17,5.566 17,5.95Z" style="fill:white;fill-rule:nonzero;"/>
    </g>
</svg>
