<?xml version="1.0" encoding="UTF-8" standalone="no"?>
<!DOCTYPE svg PUBLIC "-//W3C//DTD SVG 1.1//EN" "http://www.w3.org/Graphics/SVG/1.1/DTD/svg11.dtd">
<svg width="100%" height="100%" viewBox="0 0 24 24" version="1.1" xmlns="http://www.w3.org/2000/svg" xmlns:xlink="http://www.w3.org/1999/xlink" xml:space="preserve" style="fill-rule:evenodd;clip-rule:evenodd;stroke-linejoin:round;stroke-miterlimit:1.41421;">
    <g transform="matrix(1,0,0,1,2,2)">
        <path d="M10,1C5.092,1 2,2.512 2,4.001L2,6.001C2,6.919 8,12.001 8,12.001L8,18.001C7.999,18.685 9,19.001 10,19.001C11,19.001 12.001,18.685 12,18.001L12,12.001C12,12.001 18,6.919 18,6.001L18,4.001C18,2.512 14.908,1 10,1ZM10,6.123C6.409,6.122 3.862,4.79 3.862,4.292C3.86,3.797 6.41,2.461 10,2.463C13.59,2.461 16.14,3.797 16.138,4.291C16.138,4.79 13.591,6.122 10,6.123Z" style="fill:white;fill-rule:nonzero;"/>
    </g>
</svg>
