<?xml version="1.0" encoding="UTF-8" standalone="no"?>
<!DOCTYPE svg PUBLIC "-//W3C//DTD SVG 1.1//EN" "http://www.w3.org/Graphics/SVG/1.1/DTD/svg11.dtd">
<svg width="100%" height="100%" viewBox="0 0 24 24" version="1.1" xmlns="http://www.w3.org/2000/svg" xmlns:xlink="http://www.w3.org/1999/xlink" xml:space="preserve" style="fill-rule:evenodd;clip-rule:evenodd;stroke-linejoin:round;stroke-miterlimit:1.41421;">
    <g transform="matrix(1.07326,0,0,1.07326,-716.867,-299.103)">
        <path d="M671.613,286.183C671.588,287.111 671.48,287.702 671.288,287.955C671.097,288.209 670.722,288.336 670.166,288.336C669.733,288.336 669.408,288.221 669.192,287.993C668.975,287.764 668.867,287.427 668.867,286.981C668.867,286.981 668.873,286.885 668.886,286.694C668.898,286.502 668.904,286.307 668.904,286.109L669.09,279.986C669.114,279.528 669.238,279.198 669.461,278.993C669.683,278.789 670.03,278.687 670.5,278.687L686.624,278.687C687.094,278.687 687.44,278.789 687.663,278.993C687.886,279.198 688.003,279.528 688.015,279.986L688.22,286.109C688.22,286.332 688.226,286.542 688.238,286.74C688.25,286.938 688.257,287.031 688.257,287.018C688.257,287.464 688.139,287.795 687.904,288.011C687.669,288.228 687.317,288.336 686.846,288.336C686.352,288.336 686.012,288.209 685.826,287.955C685.64,287.702 685.535,287.111 685.511,286.183L685.325,281.359L680,281.359L680,298.077L683.581,298.077C684.1,298.077 684.478,298.179 684.713,298.383C684.948,298.587 685.065,298.912 685.065,299.357C685.065,299.79 684.954,300.121 684.731,300.35C684.509,300.579 684.187,300.693 683.766,300.693L673.357,300.693C672.937,300.693 672.615,300.579 672.392,300.35C672.17,300.121 672.058,299.79 672.058,299.357C672.058,298.9 672.179,298.572 672.42,298.374C672.661,298.176 673.073,298.077 673.654,298.077L677.124,298.077L677.124,281.359L671.799,281.359L671.613,286.183Z" style="fill-rule:nonzero;"/>
    </g>
</svg>
