<?xml version="1.0" encoding="UTF-8" standalone="no"?>
<!DOCTYPE svg PUBLIC "-//W3C//DTD SVG 1.1//EN" "http://www.w3.org/Graphics/SVG/1.1/DTD/svg11.dtd">
<svg width="100%" height="100%" viewBox="0 0 1800 570" version="1.1" xmlns="http://www.w3.org/2000/svg" xmlns:xlink="http://www.w3.org/1999/xlink" xml:space="preserve" style="fill-rule:evenodd;clip-rule:evenodd;stroke-linejoin:round;stroke-miterlimit:1.41421;">
    <g id="Artboard1" transform="matrix(1,0,0,0.7125,0,0)">
        <rect x="0" y="0" width="1800" height="800" style="fill:none;"/>
        <g transform="matrix(1.00038,0,0,1.40405,-50.9453,-94.9415)">
            <path d="M334.199,351.865C334.069,352.19 333.076,352.825 331.221,353.769C329.365,354.713 327.152,355.722 324.58,356.796C322.009,357.87 319.307,358.814 316.475,359.628C313.643,360.442 311.152,360.849 309.004,360.849C307.572,360.849 306.416,360.588 305.537,360.068C304.658,359.547 304.219,358.7 304.219,357.529C304.219,357.138 304.284,356.764 304.414,356.406C304.544,356.047 304.707,355.51 304.902,354.794C307.376,345.484 309.915,336.207 312.52,326.962C315.124,317.717 317.663,308.684 320.137,299.863C322.611,291.041 324.955,282.512 327.168,274.277C329.382,266.041 331.302,258.294 332.93,251.034C334.557,243.775 335.859,237.102 336.836,231.015C337.813,224.928 338.301,219.605 338.301,215.048C338.301,200.79 337.113,187.9 334.736,176.376C332.36,164.853 329.007,154.615 324.678,145.663C320.348,136.712 315.173,128.997 309.15,122.519C303.128,116.041 296.471,110.719 289.18,106.552C281.888,102.385 274.092,99.309 265.791,97.324C257.49,95.338 248.913,94.345 240.059,94.345C229.577,94.345 218.9,95.647 208.027,98.251C197.155,100.855 186.429,104.599 175.85,109.482C165.27,114.365 155.016,120.322 145.088,127.353C135.16,134.384 125.915,142.31 117.354,151.132C108.792,159.954 101.126,169.622 94.356,180.136C87.585,190.65 82.051,201.832 77.754,213.681C76.452,217.197 75.394,219.622 74.58,220.956C73.766,222.291 73.099,222.958 72.578,222.958C71.992,222.958 71.569,222.258 71.309,220.859C71.048,219.459 70.918,218.043 70.918,216.611C70.918,215.96 70.934,215.39 70.967,214.902C70.999,214.413 71.048,214.006 71.113,213.681C74.173,200.855 78.861,188.941 85.176,177.939C91.491,166.936 98.978,156.91 107.637,147.861C116.296,138.811 125.931,130.787 136.543,123.788C147.155,116.79 158.288,110.914 169.941,106.161C181.595,101.409 193.574,97.796 205.879,95.322C218.184,92.848 230.358,91.611 242.402,91.611C253.08,91.611 263.48,92.62 273.604,94.638C283.727,96.656 293.265,99.716 302.217,103.818C311.169,107.919 319.388,113.128 326.875,119.443C334.362,125.758 340.807,133.228 346.211,141.855C351.615,150.481 355.83,160.279 358.858,171.249C361.885,182.219 363.399,194.41 363.399,207.822C363.399,214.202 362.878,221.9 361.836,230.917C360.794,239.934 359.167,249.863 356.953,260.702C354.74,271.542 351.908,283.066 348.457,295.273C345.007,307.48 340.905,319.931 336.152,332.626L418.77,199.032C420.332,196.624 422.09,194.101 424.043,191.464C425.996,188.827 428.063,186.386 430.244,184.14C432.425,181.894 434.655,180.038 436.934,178.574C439.212,177.109 441.458,176.376 443.672,176.376C445.886,176.376 447.611,176.555 448.848,176.913C450.085,177.271 451.012,177.711 451.631,178.232C452.249,178.753 452.64,179.355 452.803,180.038C452.966,180.722 453.047,181.389 453.047,182.04L334.199,351.865Z" style="fill-rule:nonzero;"/>
            <path d="M511.934,317.587C501.843,323.381 493.281,328.411 486.25,332.675C479.219,336.939 473.229,340.455 468.281,343.222C463.333,345.989 459.15,348.04 455.733,349.374C452.315,350.709 449.206,351.376 446.406,351.376C443.672,351.376 441.344,351.051 439.424,350.4C437.503,349.749 435.925,348.87 434.688,347.763C433.451,346.656 432.555,345.322 432.002,343.759C431.449,342.197 431.172,340.504 431.172,338.681C431.172,337.314 431.465,335.914 432.051,334.482C432.637,333.049 433.369,331.585 434.248,330.087C435.127,328.59 436.055,327.011 437.031,325.351C438.008,323.691 438.919,321.917 439.766,320.029L454.609,286.825L402.168,317.587C401.322,317.913 400.736,318.075 400.41,318.075C399.629,318.075 398.929,317.815 398.311,317.294C397.692,316.773 397.383,316.09 397.383,315.243C397.383,314.462 397.725,313.583 398.408,312.607C399.092,311.63 400.345,310.588 402.168,309.482L427.461,294.736C430.781,292.782 434.134,290.829 437.52,288.876C440.905,286.923 444.079,285.1 447.041,283.407C450.003,281.715 452.673,280.201 455.049,278.866C457.425,277.532 459.264,276.506 460.566,275.79L473.164,275.79C473.425,275.986 473.652,276.311 473.848,276.767C474.043,277.223 474.141,277.906 474.141,278.818C474.141,280.51 473.652,282.903 472.676,285.995C471.699,289.088 470.479,292.555 469.014,296.396C467.549,300.237 465.921,304.257 464.131,308.456C462.341,312.656 460.664,316.643 459.102,320.419C457.539,324.13 455.912,327.841 454.219,331.552C452.526,335.263 450.833,339.072 449.141,342.978C450.899,342.978 453.682,342.099 457.49,340.341C461.299,338.583 465.921,336.191 471.358,333.163C476.794,330.136 482.946,326.588 489.815,322.519C496.683,318.45 504.056,314.104 511.934,309.482C512.194,309.221 512.682,309.091 513.399,309.091C514.18,309.091 514.912,309.352 515.596,309.872C516.279,310.393 516.621,311.109 516.621,312.021C516.621,312.802 516.279,313.665 515.596,314.609C514.912,315.553 513.691,316.546 511.934,317.587ZM484.981,241.611C485.371,241.611 486.104,241.627 487.178,241.659C488.252,241.692 489.473,241.773 490.84,241.904C492.207,242.034 493.639,242.245 495.137,242.538C496.634,242.831 498.001,243.254 499.238,243.808C500.475,244.361 501.517,245.061 502.363,245.907C503.21,246.754 503.665,247.796 503.731,249.032L489.57,259.775L483.125,262.802C481.953,262.802 481.042,262.477 480.391,261.825C479.74,261.174 479.251,260.491 478.926,259.775L484.981,241.611Z" style="fill-rule:nonzero;"/>
            <path d="M577.559,287.411C577.559,290.146 577.754,292.164 578.145,293.466C578.535,294.768 578.975,295.924 579.463,296.933C579.951,297.942 580.407,299.049 580.83,300.253C581.253,301.458 581.465,303.329 581.465,305.868C581.465,307.626 581.286,309.596 580.928,311.777C580.57,313.958 579.902,316.204 578.926,318.515C577.949,320.826 576.582,323.105 574.824,325.351C573.066,327.597 570.82,329.599 568.086,331.357L606.367,309.482C606.823,309.221 607.279,309.091 607.734,309.091C608.451,309.091 609.085,309.368 609.639,309.921C610.192,310.475 610.469,311.207 610.469,312.118C610.469,312.835 610.16,313.713 609.541,314.755C608.923,315.797 607.865,316.741 606.367,317.587C598.359,322.144 591.475,326.1 585.713,329.452C579.951,332.805 575.036,335.686 570.967,338.095C566.898,340.504 563.561,342.506 560.957,344.101C558.353,345.696 556.172,347.014 554.414,348.056C551.289,349.944 548.327,351.213 545.527,351.865C542.728,352.516 539.961,352.841 537.227,352.841C535.143,352.841 533.63,352.483 532.686,351.767C531.742,351.051 531.286,350.253 531.318,349.374C531.351,348.495 531.856,347.682 532.832,346.933C533.809,346.184 535.208,345.81 537.031,345.81C540.221,345.81 543.314,344.719 546.309,342.538C549.303,340.357 551.956,337.395 554.268,333.652C556.579,329.908 558.434,325.53 559.834,320.517C561.234,315.504 561.934,310.198 561.934,304.599C561.934,303.753 562.113,302.125 562.471,299.716C562.829,297.307 563.399,294.703 564.18,291.904C564.961,289.104 565.986,286.37 567.256,283.7C568.525,281.031 570.039,279.013 571.797,277.646L511.934,317.587C511.283,318.043 510.599,318.271 509.883,318.271C509.167,318.271 508.581,318.01 508.125,317.49C507.669,316.969 507.441,316.318 507.441,315.536C507.441,314.625 507.783,313.616 508.467,312.509C509.15,311.402 510.306,310.393 511.934,309.482C522.415,302.385 531.221,296.477 538.35,291.757C545.479,287.037 551.289,283.212 555.781,280.282L569.453,271.005C571.471,270.159 573.587,269.491 575.801,269.003C578.014,268.515 580.065,268.271 581.953,268.271C584.037,268.271 585.746,268.613 587.08,269.296C588.415,269.98 589.082,271.07 589.082,272.568C589.082,273.088 588.48,273.935 587.275,275.107C586.071,276.279 584.753,277.597 583.32,279.062C581.888,280.527 580.57,282.008 579.365,283.505C578.161,285.003 577.559,286.305 577.559,287.411Z" style="fill-rule:nonzero;"/>
            <path d="M716.133,317.587C706.042,323.381 697.481,328.411 690.449,332.675C683.418,336.939 677.428,340.455 672.481,343.222C667.533,345.989 663.35,348.04 659.932,349.374C656.514,350.709 653.405,351.376 650.606,351.376C647.871,351.376 645.544,351.051 643.623,350.4C641.703,349.749 640.124,348.87 638.887,347.763C637.65,346.656 636.755,345.322 636.201,343.759C635.648,342.197 635.371,340.504 635.371,338.681C635.371,337.314 635.664,335.914 636.25,334.482C636.836,333.049 637.568,331.585 638.447,330.087C639.326,328.59 640.254,327.011 641.231,325.351C642.207,323.691 643.119,321.917 643.965,320.029L658.809,286.825L606.367,317.587C605.521,317.913 604.935,318.075 604.609,318.075C603.828,318.075 603.128,317.815 602.51,317.294C601.891,316.773 601.582,316.09 601.582,315.243C601.582,314.462 601.924,313.583 602.608,312.607C603.291,311.63 604.544,310.588 606.367,309.482L631.66,294.736C634.981,292.782 638.333,290.829 641.719,288.876C645.104,286.923 648.278,285.1 651.24,283.407C654.203,281.715 656.872,280.201 659.248,278.866C661.624,277.532 663.464,276.506 664.766,275.79L677.363,275.79C677.624,275.986 677.852,276.311 678.047,276.767C678.242,277.223 678.34,277.906 678.34,278.818C678.34,280.51 677.852,282.903 676.875,285.995C675.899,289.088 674.678,292.555 673.213,296.396C671.748,300.237 670.121,304.257 668.33,308.456C666.54,312.656 664.863,316.643 663.301,320.419C661.738,324.13 660.111,327.841 658.418,331.552C656.725,335.263 655.033,339.072 653.34,342.978C655.098,342.978 657.881,342.099 661.69,340.341C665.498,338.583 670.121,336.191 675.557,333.163C680.993,330.136 687.145,326.588 694.014,322.519C700.882,318.45 708.255,314.104 716.133,309.482C716.393,309.221 716.882,309.091 717.598,309.091C718.379,309.091 719.111,309.352 719.795,309.872C720.479,310.393 720.82,311.109 720.82,312.021C720.82,312.802 720.479,313.665 719.795,314.609C719.111,315.553 717.891,316.546 716.133,317.587ZM689.18,241.611C689.57,241.611 690.303,241.627 691.377,241.659C692.451,241.692 693.672,241.773 695.039,241.904C696.406,242.034 697.839,242.245 699.336,242.538C700.833,242.831 702.201,243.254 703.438,243.808C704.675,244.361 705.716,245.061 706.563,245.907C707.409,246.754 707.865,247.796 707.93,249.032L693.77,259.775L687.324,262.802C686.152,262.802 685.241,262.477 684.59,261.825C683.939,261.174 683.451,260.491 683.125,259.775L689.18,241.611Z" style="fill-rule:nonzero;"/>
            <path d="M807.832,270.224C811.543,270.224 814.847,270.973 817.744,272.47C820.641,273.967 823.083,276.002 825.068,278.574C827.054,281.145 828.568,284.156 829.609,287.607C830.651,291.057 831.172,294.736 831.172,298.642C831.172,300.921 830.912,303.427 830.391,306.161C829.87,308.896 829.121,311.712 828.145,314.609C827.168,317.506 825.98,320.387 824.58,323.251C823.18,326.116 821.634,328.753 819.941,331.161C821.178,330.51 822.676,329.697 824.434,328.72C826.191,327.743 828.063,326.685 830.049,325.546C832.035,324.407 834.118,323.219 836.299,321.982C838.48,320.745 840.612,319.54 842.695,318.368L857.832,309.482C858.288,309.221 858.906,309.091 859.688,309.091C861.185,309.091 861.934,309.872 861.934,311.435C861.934,313.583 860.566,315.634 857.832,317.587C855.488,319.15 852.428,321.103 848.652,323.447C844.876,325.79 840.791,328.085 836.397,330.331C832.002,332.577 827.542,334.563 823.018,336.288C818.493,338.014 814.277,339.006 810.371,339.267C805.293,343.043 799.336,346.087 792.5,348.398C785.664,350.709 777.689,351.865 768.574,351.865C764.082,351.865 760.29,351.474 757.197,350.693C754.105,349.911 751.615,348.772 749.727,347.275C747.839,345.777 746.471,343.938 745.625,341.757C744.779,339.576 744.356,337.053 744.356,334.189C744.356,330.022 745.202,325.562 746.895,320.81C748.587,316.057 750.687,311.419 753.193,306.894C755.7,302.369 758.386,298.154 761.25,294.247C764.115,290.341 766.719,287.118 769.063,284.579C766.979,286.402 764.033,288.583 760.225,291.122C756.416,293.661 752.119,296.379 747.334,299.277C742.549,302.174 737.471,305.185 732.1,308.31C726.729,311.435 721.406,314.527 716.133,317.587C715.352,317.913 714.636,318.075 713.984,318.075C713.138,318.075 712.487,317.831 712.031,317.343C711.576,316.855 711.348,316.22 711.348,315.439C711.348,314.527 711.722,313.567 712.471,312.558C713.219,311.549 714.44,310.523 716.133,309.482C726.029,303.687 734.46,298.691 741.426,294.491C748.392,290.292 754.414,286.728 759.492,283.798C764.57,280.868 768.997,278.525 772.774,276.767C776.55,275.009 780.179,273.642 783.662,272.665C787.145,271.689 790.775,271.038 794.551,270.712C798.327,270.387 802.754,270.224 807.832,270.224ZM768.77,343.466C772.871,343.466 776.875,342.62 780.781,340.927C784.688,339.234 788.496,336.923 792.207,333.993C791.361,333.017 790.775,331.91 790.449,330.673C790.124,329.436 789.961,328.167 789.961,326.865C789.961,324.586 790.71,322.877 792.207,321.738C793.705,320.598 795.495,320.029 797.578,320.029C799.792,320.029 801.94,320.68 804.024,321.982C806.107,320.484 808.093,318.694 809.981,316.611C811.869,314.527 813.512,312.314 814.912,309.97C816.312,307.626 817.419,305.217 818.233,302.743C819.046,300.269 819.453,297.861 819.453,295.517C819.453,293.499 819.079,291.562 818.33,289.706C817.581,287.851 816.377,286.24 814.717,284.872C813.057,283.505 810.876,282.415 808.174,281.601C805.472,280.787 802.201,280.38 798.359,280.38C795.169,280.38 791.996,281.227 788.838,282.919C785.68,284.612 782.653,286.874 779.756,289.706C776.859,292.538 774.157,295.761 771.65,299.374C769.144,302.988 766.979,306.715 765.156,310.556C763.333,314.397 761.901,318.173 760.859,321.884C759.818,325.595 759.297,328.98 759.297,332.04C759.297,335.426 760.046,338.176 761.543,340.292C763.04,342.408 765.449,343.466 768.77,343.466Z" style="fill-rule:nonzero;"/>
            <path d="M975.899,286.337C973.425,286.337 970.332,287.037 966.621,288.437C962.91,289.837 958.841,291.757 954.414,294.199C949.987,296.64 945.381,299.521 940.596,302.841C935.811,306.161 931.123,309.775 926.533,313.681C921.943,317.587 917.581,321.705 913.447,326.034C909.313,330.364 905.716,334.71 902.656,339.072C902.331,339.397 902.168,340.129 902.168,341.269C902.168,342.408 901.989,343.596 901.631,344.833C901.273,346.07 900.573,347.177 899.531,348.154C898.49,349.13 896.764,349.618 894.356,349.618C892.663,349.618 891.344,349.423 890.4,349.032C889.456,348.642 888.74,348.105 888.252,347.421C887.764,346.738 887.455,345.924 887.324,344.98C887.194,344.036 887.129,342.978 887.129,341.806C887.129,340.634 887.455,338.909 888.106,336.63C888.757,334.352 889.603,331.715 890.645,328.72C891.686,325.725 892.858,322.503 894.16,319.052C895.462,315.602 896.781,312.151 898.115,308.7C899.45,305.25 900.719,301.897 901.924,298.642C903.128,295.387 904.154,292.457 905,289.853L857.832,317.587C857.507,317.652 857.23,317.701 857.002,317.734C856.774,317.766 856.595,317.782 856.465,317.782C855.553,317.782 854.886,317.538 854.463,317.05C854.04,316.562 853.828,315.96 853.828,315.243C853.828,314.332 854.17,313.339 854.854,312.265C855.537,311.191 856.53,310.263 857.832,309.482C867.598,303.687 875.654,298.919 882.002,295.175C888.35,291.432 893.444,288.421 897.285,286.142C901.126,283.863 904.007,282.171 905.928,281.064C907.848,279.957 909.297,279.143 910.274,278.622C911.185,278.102 912.015,277.743 912.764,277.548C913.512,277.353 914.343,277.255 915.254,277.255C917.142,277.255 918.688,277.809 919.893,278.915C921.097,280.022 921.699,281.259 921.699,282.626C921.699,283.993 921.276,285.865 920.43,288.241C919.583,290.618 918.542,293.206 917.305,296.005C916.068,298.805 914.798,301.653 913.496,304.55C912.194,307.447 911.087,310.133 910.176,312.607C909.785,313.583 909.476,314.381 909.248,314.999C909.02,315.618 908.76,316.318 908.467,317.099C908.174,317.88 907.767,318.873 907.246,320.077C906.725,321.282 905.977,322.958 905,325.107C907.734,321.591 910.941,317.913 914.619,314.072C918.298,310.23 922.302,306.471 926.631,302.792C930.96,299.114 935.583,295.615 940.498,292.294C945.414,288.974 950.492,286.06 955.733,283.554C960.973,281.047 966.328,279.062 971.797,277.597C977.266,276.132 982.702,275.4 988.106,275.4C991.426,275.4 993.721,276.1 994.99,277.499C996.26,278.899 996.895,280.803 996.895,283.212C996.895,285.165 996.537,287.542 995.82,290.341C995.104,293.141 994.128,296.184 992.891,299.472C991.654,302.76 990.254,306.275 988.691,310.019C987.129,313.762 985.485,317.538 983.76,321.347C982.035,325.156 980.309,328.98 978.584,332.822C976.859,336.663 975.247,340.341 973.75,343.857C977.461,342.359 981.335,340.406 985.371,337.997C989.408,335.588 993.721,332.887 998.311,329.892C1002.9,326.897 1007.75,323.658 1012.86,320.175C1017.97,316.692 1023.46,313.128 1029.32,309.482C1029.77,309.221 1030.39,309.091 1031.17,309.091C1032.73,309.091 1033.52,309.97 1033.52,311.728C1033.52,312.639 1033.16,313.632 1032.44,314.706C1031.72,315.781 1030.68,316.741 1029.32,317.587C1021.57,322.405 1014.57,326.995 1008.32,331.357C1002.07,335.719 996.358,339.592 991.182,342.978C986.006,346.363 981.286,349.049 977.022,351.034C972.757,353.02 968.802,354.013 965.156,354.013C962.943,354.013 961.055,353.736 959.492,353.183C957.93,352.629 956.644,351.897 955.635,350.986C954.626,350.074 953.877,348.984 953.389,347.714C952.9,346.445 952.656,345.126 952.656,343.759C952.656,342.262 952.966,340.781 953.584,339.316C954.203,337.851 955.065,336.272 956.172,334.579C958.19,330.152 960.436,325.514 962.91,320.663C965.384,315.813 967.663,311.207 969.746,306.845C971.83,302.483 973.587,298.609 975.02,295.224C976.452,291.838 977.168,289.397 977.168,287.9C977.168,286.858 976.745,286.337 975.899,286.337Z" style="fill-rule:nonzero;"/>
            <path d="M1029.32,317.587C1028.86,317.848 1028.44,317.978 1028.05,317.978C1027.4,317.978 1026.91,317.701 1026.58,317.148C1026.26,316.594 1026.09,315.894 1026.09,315.048C1026.09,314.137 1026.32,313.16 1026.78,312.118C1027.23,311.077 1028.08,310.198 1029.32,309.482L1065.45,288.193C1069.94,285.588 1074.73,283.342 1079.81,281.454C1084.88,279.566 1090.04,278.02 1095.28,276.816C1100.52,275.611 1105.72,274.732 1110.86,274.179C1116,273.626 1120.85,273.349 1125.41,273.349C1128.01,273.349 1130.46,273.528 1132.73,273.886C1135.01,274.244 1136.98,274.765 1138.64,275.449C1140.3,276.132 1141.61,276.962 1142.55,277.939C1143.49,278.915 1143.96,280.022 1143.96,281.259C1143.96,282.171 1143.64,282.822 1142.99,283.212C1142.34,283.603 1141.57,283.879 1140.69,284.042C1139.82,284.205 1138.9,284.319 1137.96,284.384C1137.02,284.449 1136.28,284.612 1135.76,284.872C1135.37,286.109 1134.75,288.014 1133.91,290.585C1133.06,293.157 1132.21,295.794 1131.37,298.495C1130.52,301.197 1129.76,303.606 1129.07,305.722C1128.39,307.838 1128.01,309.059 1127.95,309.384C1127.1,312.118 1125.95,315.585 1124.48,319.784C1123.02,323.984 1121.41,329.599 1119.65,336.63C1119.71,336.63 1120.45,336.256 1121.85,335.507C1123.25,334.758 1125.07,333.766 1127.32,332.529C1129.56,331.292 1132.12,329.859 1134.98,328.232C1137.85,326.604 1140.81,324.944 1143.87,323.251L1167.21,309.482C1168.12,308.961 1168.9,308.7 1169.55,308.7C1170.27,308.7 1170.82,308.945 1171.21,309.433C1171.6,309.921 1171.8,310.523 1171.8,311.24C1171.8,312.151 1171.44,313.209 1170.72,314.413C1170.01,315.618 1168.84,316.676 1167.21,317.587L1115.25,348.056C1113.95,348.837 1112.75,349.391 1111.64,349.716C1110.53,350.042 1109.53,350.204 1108.61,350.204C1107.31,350.204 1106.2,349.911 1105.29,349.325C1104.38,348.74 1103.63,347.926 1103.05,346.884C1102.46,345.842 1102.02,344.654 1101.73,343.32C1101.44,341.985 1101.29,340.569 1101.29,339.072C1101.29,337.444 1101.45,335.816 1101.78,334.189C1102.1,332.561 1102.53,330.999 1103.05,329.501C1101.16,333.212 1098.96,336.435 1096.45,339.169C1093.95,341.904 1091.28,344.199 1088.45,346.054C1085.62,347.909 1082.7,349.293 1079.71,350.204C1076.71,351.116 1073.78,351.572 1070.92,351.572C1068.05,351.572 1065.35,351.116 1062.81,350.204C1060.27,349.293 1058.04,347.942 1056.12,346.152C1054.2,344.361 1052.69,342.131 1051.58,339.462C1050.47,336.793 1049.92,333.7 1049.92,330.185C1049.92,328.102 1050.13,325.79 1050.56,323.251C1050.98,320.712 1051.55,318.141 1052.27,315.536C1052.98,312.932 1053.8,310.377 1054.71,307.87C1055.62,305.364 1056.56,303.069 1057.54,300.986L1029.32,317.587ZM1118.09,281.65C1112.88,281.65 1107.9,282.529 1103.14,284.286C1098.39,286.044 1093.98,288.355 1089.91,291.22C1085.84,294.085 1082.16,297.356 1078.88,301.034C1075.59,304.713 1072.79,308.489 1070.48,312.363C1068.17,316.236 1066.38,320.061 1065.11,323.837C1063.84,327.613 1063.2,330.999 1063.2,333.993C1063.2,337.314 1063.94,339.999 1065.4,342.05C1066.87,344.101 1069.26,345.126 1072.58,345.126C1074.53,345.126 1076.66,344.524 1078.97,343.32C1081.29,342.115 1083.63,340.52 1086.01,338.534C1088.38,336.549 1090.73,334.303 1093.04,331.796C1095.35,329.29 1097.48,326.751 1099.43,324.179C1101.39,321.607 1103.1,319.101 1104.56,316.659C1106.03,314.218 1107.08,312.086 1107.73,310.263L1118.09,281.65Z" style="fill-rule:nonzero;"/>
            <path d="M1276.68,279.208C1276.68,280.836 1276.39,282.74 1275.8,284.921C1275.21,287.102 1274.47,289.413 1273.56,291.855C1272.64,294.296 1271.67,296.786 1270.62,299.325C1269.58,301.865 1268.61,304.322 1267.69,306.699C1266.78,309.075 1266.04,311.305 1265.45,313.388C1264.86,315.471 1264.57,317.229 1264.57,318.661C1264.57,319.898 1264.85,320.875 1265.4,321.591C1265.95,322.307 1266.85,322.665 1268.09,322.665C1269,322.665 1270.28,322.324 1271.94,321.64C1273.6,320.956 1275.56,320.012 1277.8,318.808C1280.05,317.603 1282.52,316.204 1285.23,314.609C1287.93,313.014 1290.78,311.305 1293.77,309.482C1294.42,309.091 1295.07,308.896 1295.72,308.896C1296.44,308.896 1297.07,309.156 1297.63,309.677C1298.18,310.198 1298.46,310.849 1298.46,311.63C1298.46,312.477 1298.1,313.372 1297.38,314.316C1296.67,315.26 1295.46,316.35 1293.77,317.587C1285.31,323.902 1277.58,328.785 1270.58,332.236C1263.58,335.686 1258,337.411 1253.83,337.411C1250.44,337.411 1247.77,336.891 1245.82,335.849C1243.87,334.807 1242.89,333.18 1242.89,330.966C1242.89,328.883 1243.79,326.246 1245.58,323.056C1247.37,319.866 1250.31,316.09 1254.41,311.728C1255.98,309.124 1257.21,306.275 1258.12,303.183C1259.04,300.09 1259.7,297.063 1260.13,294.101C1260.55,291.139 1260.83,288.404 1260.96,285.898C1261.09,283.391 1261.15,281.389 1261.15,279.892C1261.15,277.418 1260.75,275.514 1259.93,274.179C1259.12,272.844 1257.77,272.177 1255.88,272.177C1253.8,272.177 1251.76,273.105 1249.78,274.96C1247.79,276.816 1245.8,279.371 1243.82,282.626C1241.83,285.881 1239.86,289.723 1237.91,294.15C1235.96,298.577 1233.95,303.362 1231.9,308.505C1229.85,313.648 1227.75,319.019 1225.61,324.618C1223.46,330.217 1221.21,335.849 1218.87,341.513C1218.48,342.62 1217.99,343.759 1217.4,344.931C1216.82,346.103 1216.15,347.193 1215.4,348.202C1214.65,349.212 1213.81,350.042 1212.86,350.693C1211.92,351.344 1210.92,351.669 1209.88,351.669C1207.41,351.669 1205.55,351.116 1204.32,350.009C1203.08,348.902 1202.46,347.079 1202.46,344.54C1202.46,343.824 1202.51,343.075 1202.61,342.294C1202.7,341.513 1203.01,340.602 1203.54,339.56L1222.38,301.767C1224.86,295.387 1227.51,290.113 1230.34,285.947C1233.17,281.78 1235.73,278.427 1238.01,275.888C1232.67,279.078 1227.33,282.268 1221.99,285.458C1216.65,288.648 1211.51,291.725 1206.56,294.687C1201.62,297.649 1196.94,300.449 1192.55,303.085C1188.15,305.722 1184.23,308.049 1180.78,310.068C1177.33,312.086 1174.43,313.746 1172.09,315.048C1169.75,316.35 1168.12,317.197 1167.21,317.587C1166.69,317.913 1166.13,318.075 1165.55,318.075C1164.83,318.075 1164.23,317.815 1163.74,317.294C1163.25,316.773 1163.01,316.09 1163.01,315.243C1163.01,314.332 1163.32,313.339 1163.94,312.265C1164.55,311.191 1165.64,310.198 1167.21,309.286L1193.28,294.052C1196.67,292.034 1200.09,289.999 1203.54,287.949C1206.99,285.898 1210.23,283.993 1213.25,282.236C1216.28,280.478 1218.96,278.915 1221.31,277.548C1223.65,276.181 1225.44,275.139 1226.68,274.423C1229.81,272.6 1232.85,271.038 1235.81,269.736C1238.77,268.434 1241.72,267.359 1244.65,266.513C1247.58,265.667 1250.56,265.016 1253.58,264.56C1256.61,264.104 1259.79,263.779 1263.11,263.583C1264.54,263.583 1266.05,264.023 1267.65,264.902C1269.24,265.781 1270.71,266.952 1272.04,268.417C1273.38,269.882 1274.48,271.542 1275.36,273.398C1276.24,275.253 1276.68,277.19 1276.68,279.208Z" style="fill-rule:nonzero;"/>
            <path d="M1403.54,317.587C1393.44,323.381 1384.88,328.411 1377.85,332.675C1370.82,336.939 1364.83,340.455 1359.88,343.222C1354.93,345.989 1350.75,348.04 1347.33,349.374C1343.92,350.709 1340.81,351.376 1338.01,351.376C1335.27,351.376 1332.95,351.051 1331.03,350.4C1329.11,349.749 1327.53,348.87 1326.29,347.763C1325.05,346.656 1324.16,345.322 1323.6,343.759C1323.05,342.197 1322.77,340.504 1322.77,338.681C1322.77,337.314 1323.07,335.914 1323.65,334.482C1324.24,333.049 1324.97,331.585 1325.85,330.087C1326.73,328.59 1327.66,327.011 1328.63,325.351C1329.61,323.691 1330.52,321.917 1331.37,320.029L1346.21,286.825L1293.77,317.587C1292.92,317.913 1292.34,318.075 1292.01,318.075C1291.23,318.075 1290.53,317.815 1289.91,317.294C1289.29,316.773 1288.98,316.09 1288.98,315.243C1288.98,314.462 1289.33,313.583 1290.01,312.607C1290.69,311.63 1291.95,310.588 1293.77,309.482L1319.06,294.736C1322.38,292.782 1325.74,290.829 1329.12,288.876C1332.51,286.923 1335.68,285.1 1338.64,283.407C1341.61,281.715 1344.27,280.201 1346.65,278.866C1349.03,277.532 1350.87,276.506 1352.17,275.79L1364.77,275.79C1365.03,275.986 1365.25,276.311 1365.45,276.767C1365.64,277.223 1365.74,277.906 1365.74,278.818C1365.74,280.51 1365.25,282.903 1364.28,285.995C1363.3,289.088 1362.08,292.555 1360.62,296.396C1359.15,300.237 1357.52,304.257 1355.73,308.456C1353.94,312.656 1352.27,316.643 1350.7,320.419C1349.14,324.13 1347.51,327.841 1345.82,331.552C1344.13,335.263 1342.43,339.072 1340.74,342.978C1342.5,342.978 1345.28,342.099 1349.09,340.341C1352.9,338.583 1357.52,336.191 1362.96,333.163C1368.39,330.136 1374.55,326.588 1381.42,322.519C1388.29,318.45 1395.66,314.104 1403.54,309.482C1403.8,309.221 1404.28,309.091 1405,309.091C1405.78,309.091 1406.51,309.352 1407.2,309.872C1407.88,310.393 1408.22,311.109 1408.22,312.021C1408.22,312.802 1407.88,313.665 1407.2,314.609C1406.51,315.553 1405.29,316.546 1403.54,317.587ZM1376.58,241.611C1376.97,241.611 1377.7,241.627 1378.78,241.659C1379.85,241.692 1381.07,241.773 1382.44,241.904C1383.81,242.034 1385.24,242.245 1386.74,242.538C1388.24,242.831 1389.6,243.254 1390.84,243.808C1392.08,244.361 1393.12,245.061 1393.96,245.907C1394.81,246.754 1395.27,247.796 1395.33,249.032L1381.17,259.775L1374.73,262.802C1373.56,262.802 1372.64,262.477 1371.99,261.825C1371.34,261.174 1370.85,260.491 1370.53,259.775L1376.58,241.611Z" style="fill-rule:nonzero;"/>
            <path d="M1403.54,317.587C1402.88,318.043 1402.14,318.271 1401.29,318.271C1400.44,318.271 1399.76,318.027 1399.24,317.538C1398.72,317.05 1398.46,316.415 1398.46,315.634C1398.46,314.788 1398.83,313.827 1399.58,312.753C1400.33,311.679 1401.65,310.588 1403.54,309.482L1428.24,294.931C1430.07,289.788 1432.42,285.344 1435.32,281.601C1438.22,277.857 1441.41,274.765 1444.89,272.324C1448.38,269.882 1452.02,268.059 1455.83,266.855C1459.64,265.65 1463.33,265.048 1466.91,265.048C1470.56,265.048 1473.57,266.008 1475.95,267.929C1478.32,269.85 1479.51,272.828 1479.51,276.865C1479.51,279.338 1478.62,281.926 1476.83,284.628C1475.04,287.33 1472.59,289.999 1469.5,292.636C1466.41,295.273 1462.78,297.73 1458.61,300.009C1454.45,302.288 1450.02,304.208 1445.33,305.771C1445.33,308.896 1445.28,311.858 1445.19,314.657C1445.09,317.457 1445.04,320.094 1445.04,322.568C1445.04,324.651 1445.1,326.555 1445.23,328.281C1445.37,330.006 1445.64,331.471 1446.07,332.675C1446.49,333.879 1447.07,334.824 1447.82,335.507C1448.57,336.191 1449.53,336.532 1450.7,336.532C1452.53,336.532 1454.72,335.8 1457.3,334.335C1459.87,332.87 1463.11,330.999 1467.01,328.72C1470.53,326.637 1475.02,324.032 1480.49,320.907C1485.96,317.782 1492.63,313.974 1500.51,309.482C1500.77,309.286 1501.13,309.189 1501.58,309.189C1502.3,309.189 1502.93,309.498 1503.49,310.116C1504.04,310.735 1504.32,311.5 1504.32,312.411C1504.32,313.193 1504.04,314.039 1503.49,314.95C1502.93,315.862 1501.94,316.741 1500.51,317.587C1494.06,321.428 1487.81,325.318 1481.76,329.257C1475.7,333.196 1469.99,336.777 1464.62,339.999C1459.25,343.222 1454.28,345.859 1449.73,347.909C1445.17,349.96 1441.2,350.986 1437.81,350.986C1435.53,350.986 1433.53,350.497 1431.81,349.521C1430.08,348.544 1428.62,346.982 1427.41,344.833C1426.21,342.685 1425.3,339.869 1424.68,336.386C1424.06,332.903 1423.75,328.655 1423.75,323.642C1423.75,322.861 1423.8,321.607 1423.9,319.882C1423.99,318.157 1424.16,316.301 1424.38,314.316C1424.61,312.33 1424.89,310.393 1425.21,308.505C1425.54,306.617 1425.93,305.152 1426.39,304.111C1425.93,304.371 1425.26,304.762 1424.38,305.282C1423.51,305.803 1422.48,306.406 1421.31,307.089C1420.14,307.773 1418.9,308.505 1417.6,309.286C1416.3,310.068 1414.99,310.849 1413.69,311.63L1403.54,317.587ZM1468.96,277.646C1469.1,277.255 1469.16,276.832 1469.16,276.376C1469.16,274.749 1468.88,273.544 1468.33,272.763C1467.78,271.982 1466.85,271.591 1465.55,271.591C1464.05,271.591 1462.32,272.161 1460.37,273.3C1458.42,274.439 1456.51,276.116 1454.66,278.329C1452.8,280.543 1451.14,283.31 1449.68,286.63C1448.21,289.95 1447.22,293.759 1446.7,298.056C1449.37,296.689 1451.97,295.11 1454.51,293.32C1457.05,291.529 1459.35,289.706 1461.4,287.851C1463.45,285.995 1465.14,284.172 1466.48,282.382C1467.81,280.592 1468.64,279.013 1468.96,277.646Z" style="fill-rule:nonzero;"/>
            <path d="M1566.13,287.411C1566.13,290.146 1566.33,292.164 1566.72,293.466C1567.11,294.768 1567.55,295.924 1568.04,296.933C1568.53,297.942 1568.98,299.049 1569.4,300.253C1569.83,301.458 1570.04,303.329 1570.04,305.868C1570.04,307.626 1569.86,309.596 1569.5,311.777C1569.14,313.958 1568.48,316.204 1567.5,318.515C1566.52,320.826 1565.16,323.105 1563.4,325.351C1561.64,327.597 1559.39,329.599 1556.66,331.357L1594.94,309.482C1595.4,309.221 1595.85,309.091 1596.31,309.091C1597.03,309.091 1597.66,309.368 1598.21,309.921C1598.77,310.475 1599.04,311.207 1599.04,312.118C1599.04,312.835 1598.73,313.713 1598.12,314.755C1597.5,315.797 1596.44,316.741 1594.94,317.587C1586.93,322.144 1580.05,326.1 1574.29,329.452C1568.53,332.805 1563.61,335.686 1559.54,338.095C1555.47,340.504 1552.14,342.506 1549.53,344.101C1546.93,345.696 1544.75,347.014 1542.99,348.056C1539.86,349.944 1536.9,351.213 1534.1,351.865C1531.3,352.516 1528.54,352.841 1525.8,352.841C1523.72,352.841 1522.2,352.483 1521.26,351.767C1520.32,351.051 1519.86,350.253 1519.89,349.374C1519.92,348.495 1520.43,347.682 1521.41,346.933C1522.38,346.184 1523.78,345.81 1525.61,345.81C1528.8,345.81 1531.89,344.719 1534.88,342.538C1537.88,340.357 1540.53,337.395 1542.84,333.652C1545.15,329.908 1547.01,325.53 1548.41,320.517C1549.81,315.504 1550.51,310.198 1550.51,304.599C1550.51,303.753 1550.69,302.125 1551.05,299.716C1551.4,297.307 1551.97,294.703 1552.75,291.904C1553.54,289.104 1554.56,286.37 1555.83,283.7C1557.1,281.031 1558.61,279.013 1560.37,277.646L1500.51,317.587C1499.86,318.043 1499.17,318.271 1498.46,318.271C1497.74,318.271 1497.15,318.01 1496.7,317.49C1496.24,316.969 1496.02,316.318 1496.02,315.536C1496.02,314.625 1496.36,313.616 1497.04,312.509C1497.73,311.402 1498.88,310.393 1500.51,309.482C1510.99,302.385 1519.8,296.477 1526.92,291.757C1534.05,287.037 1539.86,283.212 1544.36,280.282L1558.03,271.005C1560.05,270.159 1562.16,269.491 1564.38,269.003C1566.59,268.515 1568.64,268.271 1570.53,268.271C1572.61,268.271 1574.32,268.613 1575.65,269.296C1576.99,269.98 1577.66,271.07 1577.66,272.568C1577.66,273.088 1577.05,273.935 1575.85,275.107C1574.64,276.279 1573.33,277.597 1571.89,279.062C1570.46,280.527 1569.14,282.008 1567.94,283.505C1566.74,285.003 1566.13,286.305 1566.13,287.411Z" style="fill-rule:nonzero;"/>
        </g>
        <g transform="matrix(1.02095,0,0,1.43292,-219.807,-161.695)">
            <path d="M568.837,536.353L471.883,536.353L471.883,625.071L582.383,625.071L582.383,632.243L464.712,632.243L464.712,438.868L582.383,438.868L582.383,446.04L471.883,446.04L471.883,529.181L568.837,529.181L568.837,536.353Z" style="fill-rule:nonzero;"/>
            <path d="M674.157,527.985L736.579,438.868L745.61,438.868L678.672,533.563L748.133,632.243L739.235,632.243L674.157,539.142L608.813,632.243L600.18,632.243L669.641,533.563L602.704,438.868L611.735,438.868L674.157,527.985Z" style="fill-rule:nonzero;"/>
            <path d="M789.172,550.563L789.172,632.243L782.001,632.243L782.001,438.868L842.43,438.868C862.175,438.868 877.515,443.849 888.45,453.81C899.385,463.771 904.852,477.605 904.852,495.313C904.852,512.845 899.518,526.392 888.848,535.954C878.179,545.517 863.016,550.386 843.36,550.563L789.172,550.563ZM789.172,543.392L842.43,543.392C859.873,543.392 873.442,539.186 883.137,530.774C892.833,522.363 897.68,510.631 897.68,495.579C897.68,479.996 892.833,467.843 883.137,459.122C873.442,450.401 859.873,446.04 842.43,446.04L789.172,446.04L789.172,543.392Z" style="fill-rule:nonzero;"/>
            <path d="M952.665,625.071L1051.88,625.071L1051.88,632.243L945.36,632.243L945.36,438.868L952.665,438.868L952.665,625.071Z" style="fill-rule:nonzero;"/>
            <path d="M1214.04,550.032C1214.04,566.767 1211.05,581.575 1205.08,594.458C1199.1,607.341 1190.58,617.302 1179.51,624.341C1168.44,631.38 1155.69,634.899 1141.26,634.899C1119.48,634.899 1101.86,627.152 1088.4,611.657C1074.94,596.162 1068.21,575.267 1068.21,548.97L1068.21,521.079C1068.21,504.433 1071.2,489.647 1077.18,476.72C1083.15,463.793 1091.7,453.81 1102.81,446.771C1113.92,439.731 1126.65,436.212 1140.99,436.212C1155.42,436.212 1168.2,439.731 1179.31,446.771C1190.42,453.81 1198.99,463.815 1205.01,476.786C1211.03,489.757 1214.04,504.522 1214.04,521.079L1214.04,550.032ZM1206.87,520.813C1206.87,497.438 1200.93,478.69 1189.07,464.567C1177.21,450.445 1161.18,443.384 1140.99,443.384C1121.07,443.384 1105.18,450.401 1093.31,464.435C1081.45,478.468 1075.52,497.571 1075.52,521.743L1075.52,550.032C1075.52,565.438 1078.19,579.052 1083.55,590.872C1088.91,602.692 1096.55,611.79 1106.46,618.165C1116.38,624.54 1127.98,627.728 1141.26,627.728C1161.45,627.728 1177.43,620.688 1189.2,606.61C1200.98,592.532 1206.87,573.319 1206.87,548.97L1206.87,520.813Z" style="fill-rule:nonzero;"/>
            <path d="M1331.84,549.501L1264.77,549.501L1264.77,632.243L1257.6,632.243L1257.6,438.868L1319.23,438.868C1338.62,438.868 1354.05,443.871 1365.51,453.876C1376.98,463.881 1382.71,477.472 1382.71,494.649C1382.71,507.842 1378.62,519.375 1370.43,529.247C1362.24,539.119 1351.81,545.251 1339.15,547.642L1390.81,630.384L1390.81,632.243L1383.24,632.243L1331.84,549.501ZM1264.77,542.329L1325.74,542.329C1340.61,542.329 1352.63,537.813 1361.79,528.782C1370.96,519.751 1375.54,508.373 1375.54,494.649C1375.54,479.597 1370.47,467.733 1360.33,459.056C1350.19,450.379 1336.32,446.04 1318.7,446.04L1264.77,446.04L1264.77,542.329Z" style="fill-rule:nonzero;"/>
            <path d="M1540.36,536.353L1443.41,536.353L1443.41,625.071L1553.91,625.071L1553.91,632.243L1436.24,632.243L1436.24,438.868L1553.91,438.868L1553.91,446.04L1443.41,446.04L1443.41,529.181L1540.36,529.181L1540.36,536.353Z" style="fill-rule:nonzero;"/>
            <path d="M1664.67,549.501L1597.6,549.501L1597.6,632.243L1590.43,632.243L1590.43,438.868L1652.06,438.868C1671.45,438.868 1686.87,443.871 1698.34,453.876C1709.81,463.881 1715.54,477.472 1715.54,494.649C1715.54,507.842 1711.44,519.375 1703.25,529.247C1695.06,539.119 1684.64,545.251 1671.98,547.642L1723.64,630.384L1723.64,632.243L1716.07,632.243L1664.67,549.501ZM1597.6,542.329L1658.56,542.329C1673.44,542.329 1685.46,537.813 1694.62,528.782C1703.79,519.751 1708.37,508.373 1708.37,494.649C1708.37,479.597 1703.3,467.733 1693.16,459.056C1683.02,450.379 1669.14,446.04 1651.52,446.04L1597.6,446.04L1597.6,542.329Z" style="fill-rule:nonzero;"/>
        </g>
    </g>
</svg>
